<svg width="49" height="42" viewBox="0 0 49 42" fill="none" xmlns="http://www.w3.org/2000/svg">
<g clip-path="url(#clip0_3633_2102)">
<path fill-rule="evenodd" clip-rule="evenodd" d="M0.000183105 13.5867C0.000183105 26.1296 8.49904 31.6427 16.9894 39.1241C21.4039 43.014 27.9347 42.9543 32.2815 38.9878C38.1011 33.675 46.4476 26.692 48.6401 18.5502C49.3977 15.7297 48.9871 13.6421 47.1799 11.2392C46.9471 10.9324 46.473 11.0176 46.3588 11.3883C45.2625 15.0438 41.4321 14.7711 41.7072 12.3171C41.9358 10.2678 43.5653 8.69566 43.4299 5.27022C43.3875 4.22214 43.1632 3.34021 42.8542 2.60741C42.3379 1.38038 41.576 0.575149 41.0258 0.115015C40.738 -0.127833 40.302 0.0553681 40.264 0.426032C40.2301 0.771132 40.1793 1.10345 40.12 1.41447C39.1508 6.43333 35.185 7.43029 33.8517 6.25013C32.6751 5.20631 33.2253 3.27631 34.4908 1.72548C34.639 1.54228 34.6305 1.28239 34.4739 1.10771C30.8001 1.72122 27.2194 3.88982 24.7899 7.54959C24.6841 7.70722 24.5783 7.94155 24.4513 8.03528C20.7479 2.76505 16.3461 -0.153396 9.81112 1.19718C4.02106 2.39438 0.000183105 7.64758 0.000183105 13.591L0.000183105 13.5867Z" fill="#561D00"/>
</g>
<defs>
<clipPath id="clip0_3633_2102">
<rect width="49" height="42" fill="white"/>
</clipPath>
</defs>
</svg>
