<svg width="17" height="17" viewBox="0 0 17 17" fill="none" xmlns="http://www.w3.org/2000/svg">
<path d="M8.25751 0C3.71064 0 0.00751436 3.70078 0.00751436 8.25C0.00590365 10.1788 0.683116 12.0467 1.92048 13.5262L0.227358 15.2198C0.156058 15.2891 0.0992412 15.3719 0.060213 15.4633C0.0211847 15.5547 0.000723308 15.653 1.88327e-05 15.7524C-0.000685643 15.8518 0.0183807 15.9504 0.0561092 16.0424C0.0938377 16.1344 0.149476 16.2179 0.219787 16.2882C0.290099 16.3585 0.373682 16.4141 0.465675 16.4518C0.557668 16.4895 0.656236 16.5085 0.755646 16.5077C0.855057 16.507 0.953328 16.4865 1.04474 16.4474C1.13616 16.4083 1.21889 16.3515 1.28814 16.2802L2.98126 14.587C4.46166 15.823 6.32899 16.5001 8.25751 16.5001C10.186 16.5001 12.0534 15.823 13.5338 14.587L15.2274 16.2802C15.2966 16.3515 15.3793 16.4083 15.4708 16.4474C15.5622 16.4865 15.6604 16.507 15.7599 16.5077C15.8593 16.5085 15.9578 16.4895 16.0498 16.4518C16.1418 16.4141 16.2254 16.3585 16.2957 16.2882C16.366 16.2179 16.4217 16.1344 16.4594 16.0424C16.4971 15.9504 16.5162 15.8518 16.5155 15.7524C16.5148 15.653 16.4943 15.5547 16.4553 15.4633C16.4163 15.3719 16.3594 15.2891 16.2881 15.2198L14.5945 13.5262C15.8321 12.0468 16.5094 10.1788 16.5075 8.25C16.5075 3.70312 12.8067 0 8.25751 0ZM9.00751 8.25C9.00751 8.44891 8.9285 8.63968 8.78784 8.78033C8.64719 8.92098 8.45643 9 8.25751 9H4.50751C4.3086 9 4.11784 8.92098 3.97718 8.78033C3.83653 8.63968 3.75751 8.44891 3.75751 8.25C3.75751 8.05109 3.83653 7.86032 3.97718 7.71967C4.11784 7.57902 4.3086 7.5 4.50751 7.5H7.50751V3C7.50751 2.80109 7.58653 2.61032 7.72718 2.46967C7.86784 2.32902 8.0586 2.25 8.25751 2.25C8.45643 2.25 8.64719 2.32902 8.78784 2.46967C8.9285 2.61032 9.00751 2.80109 9.00751 3V8.25Z" fill="#561D00"/>
</svg>
