<svg width="48" height="48" viewBox="0 0 48 48" fill="none" xmlns="http://www.w3.org/2000/svg">
<path d="M34 6.67978C37.0165 8.4215 39.5259 10.9208 41.2796 13.9304C43.0334 16.9399 43.9707 20.3553 43.9989 23.8385C44.027 27.3216 43.1449 30.7517 41.44 33.7892C39.7351 36.8267 37.2665 39.3662 34.2785 41.1564C31.2905 42.9466 27.8867 43.9254 24.4042 43.9959C20.9217 44.0664 17.4811 43.2261 14.4231 41.5583C11.3651 39.8904 8.79574 37.4528 6.96933 34.4868C5.14292 31.5208 4.12282 28.1292 4.01 24.6478L4 23.9998L4.01 23.3518C4.12201 19.8978 5.1271 16.5317 6.92728 13.5818C8.72746 10.6318 11.2613 8.19869 14.2818 6.51955C17.3023 4.84041 20.7063 3.97258 24.162 4.00066C27.6177 4.02874 31.0072 4.95178 34 6.67978ZM24 11.9998C23.5101 11.9998 23.0373 12.1797 22.6713 12.5052C22.3052 12.8307 22.0713 13.2793 22.014 13.7658L22 13.9998V23.9998L22.018 24.2618C22.0636 24.6088 22.1995 24.9377 22.412 25.2158L22.586 25.4158L28.586 31.4158L28.774 31.5798C29.1247 31.8519 29.5561 31.9996 30 31.9996C30.4439 31.9996 30.8753 31.8519 31.226 31.5798L31.414 31.4138L31.58 31.2258C31.8521 30.875 31.9998 30.4437 31.9998 29.9998C31.9998 29.5558 31.8521 29.1245 31.58 28.7738L31.414 28.5858L26 23.1698V13.9998L25.986 13.7658C25.9287 13.2793 25.6948 12.8307 25.3287 12.5052C24.9627 12.1797 24.4899 11.9998 24 11.9998Z" fill="#561D00"/>
</svg>
